<?xml version="1.0" encoding="UTF-8"?>
 <svg xmlns="http://www.w3.org/2000/svg" viewBox="0 0 316.91 58.45">
    <defs>
        <style>
            .cls-1 {
                fill: #00abe4;
            }

            .cls-2 {
                fill: #fff;
            }

            .cls-3 {
                fill: #706f6f;
            }
        </style>
    </defs>
    <title>MCRE</title>
    <g id="Layer_2" data-name="Layer 2">
        <g id="Layer_1-2" data-name="Layer 1">
            <rect class="cls-1" x="5.77" y="5.35" width="49.34" height="48.62"></rect>
            <rect class="cls-1" y="30.72" width="29.75" height="27.73"></rect>
            <rect class="cls-1" x="30.28" width="30.72" height="30.72"></rect>
            <polygon class="cls-2" points="14.92 18.49 14.92 47.88 24.51 47.88 24.51 9.17 14.92 18.49"></polygon>
            <polygon class="cls-2" points="46.53 18.49 46.53 47.88 36.94 47.88 36.94 9.17 46.53 18.49"></polygon>
            <polygon class="cls-2" points="35.52 26.13 35.52 47.88 25.93 47.88 25.93 16.8 35.52 26.13"></polygon>
            <polygon class="cls-3"
                points="71.3 14.58 71.3 34.83 75.3 34.83 75.3 22.28 83.38 34.83 91.28 22.4 91.28 34.83 95.63 34.83 95.63 14.58 91.28 14.58 83.47 26.96 75.3 14.58 71.3 14.58">
            </polygon>
            <polygon class="cls-3"
                points="117.66 18.67 117.66 14.58 97.5 14.58 97.5 34.83 117.66 34.83 117.66 30.72 101.49 30.72 101.49 26.48 113.39 26.48 113.39 22.52 101.49 22.52 101.49 18.67 117.66 18.67">
            </polygon>
            <polygon class="cls-3"
                points="139.94 14.58 119.52 14.58 119.52 18.67 127.69 18.67 127.69 34.83 131.69 34.83 131.69 18.67 139.94 18.67 139.94 14.58">
            </polygon>
            <polygon class="cls-3"
                points="233.8 30.92 233.8 14.58 229.45 14.58 229.45 34.83 231.62 34.83 233.8 34.83 245.79 34.83 245.79 30.92 233.8 30.92">
            </polygon>
            <rect class="cls-3" x="247.65" y="14.58" width="4.17" height="20.25"></rect>
            <polygon class="cls-3"
                points="273.76 14.58 253.69 14.58 253.69 18.67 261.77 18.67 261.77 34.83 265.77 34.83 265.77 18.67 273.76 18.67 273.76 14.58">
            </polygon>
            <polygon class="cls-3"
                points="312.83 14.58 312.83 28.28 301.02 14.58 296.58 14.58 296.58 34.83 301.02 34.83 301.02 21.2 312.83 34.83 314.19 34.83 316.91 34.83 316.91 14.58 312.83 14.58">
            </polygon>
            <path class="cls-3"
                d="M179.22,29.76a1.52,1.52,0,0,1-1.52,1.52h-9.39a1.52,1.52,0,0,1-1.52-1.52v-10a1.53,1.53,0,0,1,1.52-1.53h9.39a1.53,1.53,0,0,1,1.52,1.53Zm-.49-15.18H167.65A4.48,4.48,0,0,0,163.19,19V30.37a4.48,4.48,0,0,0,4.46,4.46h11.08a4.48,4.48,0,0,0,4.46-4.46V19a4.48,4.48,0,0,0-4.46-4.46">
            </path>
            <path class="cls-3"
                d="M223.45,29.76a1.52,1.52,0,0,1-1.52,1.52h-9.39A1.52,1.52,0,0,1,211,29.76v-10a1.53,1.53,0,0,1,1.52-1.53h9.39a1.53,1.53,0,0,1,1.52,1.53ZM223,14.58H211.87A4.47,4.47,0,0,0,207.42,19V30.37a4.47,4.47,0,0,0,4.45,4.46H223a4.47,4.47,0,0,0,4.45-4.46V19A4.47,4.47,0,0,0,223,14.58">
            </path>
            <path class="cls-3"
                d="M146.16,24.71v-6h10.21c1.48,0,1.95.65,1.95,2.87s-.35,3.17-2.07,3.17ZM162,24.5V18.67c0-2.43-2.45-4.09-5.12-4.09h-15V34.83h4.35V28.5h3.71l6.44,6.33H162l-6.31-6.33h1.79a4.45,4.45,0,0,0,4.52-4">
            </path>
            <path class="cls-3"
                d="M201.21,23.46a1.31,1.31,0,0,1-1.3,1.31H189.22v-6.1h10.69a1.3,1.3,0,0,1,1.3,1.3Zm-.28-8.88H185.05V34.83h4.17V28.49h11.71A4.47,4.47,0,0,0,205.39,24V19a4.48,4.48,0,0,0-4.46-4.46">
            </path>
            <path class="cls-3"
                d="M278.64,26.66V19.84a1.17,1.17,0,0,1,1.17-1.17h9.47a1.17,1.17,0,0,1,1.17,1.17v6.82Zm11.62-12.08H279.1A4.47,4.47,0,0,0,274.65,19V34.83h4V30.72h11.81v4.11h4.26V19a4.47,4.47,0,0,0-4.45-4.46">
            </path>
            <path class="cls-1"
                d="M136.81,38.78c.19,0,.29.11.29.34v1.54c0,.24-.1.36-.29.36H131a3.22,3.22,0,0,0-.84.1,1.06,1.06,0,0,0-.53.35,1.44,1.44,0,0,0-.28.65,4.92,4.92,0,0,0-.09,1v2.23a5,5,0,0,0,.09,1,1.43,1.43,0,0,0,.28.66,1.06,1.06,0,0,0,.53.35,3.22,3.22,0,0,0,.84.1h5.79c.19,0,.29.11.29.34v1.54c0,.23-.1.34-.29.34h-5.87a5.48,5.48,0,0,1-1.68-.22,2.41,2.41,0,0,1-1.13-.71,3.15,3.15,0,0,1-.64-1.28,8.17,8.17,0,0,1-.2-1.93V42.92a8,8,0,0,1,.2-1.91,3.08,3.08,0,0,1,.64-1.28,2.51,2.51,0,0,1,1.13-.72,5.45,5.45,0,0,1,1.68-.23Z">
            </path>
            <path class="cls-1"
                d="M141.75,45.71h4.48l-2.07-4.59A.14.14,0,0,0,144,41h-.08a.14.14,0,0,0-.14.11Zm2.53-6.93a1.38,1.38,0,0,1,.83.24,2.39,2.39,0,0,1,.67.95l4.31,9.42a.42.42,0,0,1,0,.26c0,.07-.08.1-.19.1h-1.65a.28.28,0,0,1-.3-.2l-.93-2h-6.12l-.9,2a.3.3,0,0,1-.3.2H138c-.11,0-.18,0-.2-.1a.36.36,0,0,1,0-.26L142.14,40a2.61,2.61,0,0,1,.64-.95,1.16,1.16,0,0,1,.73-.24Z">
            </path>
            <path class="cls-1"
                d="M153.19,44.33h5a1.15,1.15,0,0,0,.94-.35,1.69,1.69,0,0,0,.27-1v-.59a1.69,1.69,0,0,0-.27-1.05,1.15,1.15,0,0,0-.94-.35h-4.82c-.11,0-.17.07-.17.19Zm5.39-5.55a2.6,2.6,0,0,1,2.15.81,3.8,3.8,0,0,1,.65,2.42v1.16a3.75,3.75,0,0,1-.65,2.41,2.57,2.57,0,0,1-2.15.82h-5.39v3c0,.23-.1.34-.29.34h-1.4c-.2,0-.3-.11-.3-.34V39.25c0-.31.13-.47.39-.47Z">
            </path>
            <path class="cls-1"
                d="M164.38,38.78c.19,0,.29.11.29.34V49.41c0,.23-.1.34-.29.34H163c-.2,0-.3-.11-.3-.34V39.12c0-.23.1-.34.3-.34Z">
            </path>
            <path class="cls-1"
                d="M176.31,38.78c.2,0,.3.11.3.34v1.54q0,.36-.3.36h-4.09v8.39c0,.23-.09.34-.29.34h-1.42c-.19,0-.28-.11-.28-.34V41h-4.09q-.3,0-.3-.36V39.12c0-.23.1-.34.3-.34Z">
            </path>
            <path class="cls-1"
                d="M179.33,45.71h4.49l-2.08-4.59a.14.14,0,0,0-.14-.11h-.08a.14.14,0,0,0-.14.11Zm2.53-6.93a1.43,1.43,0,0,1,.84.24,2.49,2.49,0,0,1,.66.95l4.31,9.42a.36.36,0,0,1,0,.26c0,.07-.08.1-.18.1h-1.66a.28.28,0,0,1-.3-.2l-.92-2h-6.13l-.9,2a.3.3,0,0,1-.3.2h-1.69c-.11,0-.18,0-.2-.1a.42.42,0,0,1,0-.26L179.72,40a2.61,2.61,0,0,1,.64-.95,1.16,1.16,0,0,1,.73-.24Z">
            </path>
            <path class="cls-1"
                d="M189.94,38.78c.19,0,.29.11.29.34v6.26a5,5,0,0,0,.08,1,1.55,1.55,0,0,0,.28.66,1.1,1.1,0,0,0,.53.35,3.22,3.22,0,0,0,.84.1h5.27c.19,0,.29.11.29.34v1.54c0,.23-.1.34-.29.34h-5.35a5.48,5.48,0,0,1-1.68-.22,2.41,2.41,0,0,1-1.13-.71,3.15,3.15,0,0,1-.64-1.28,8.17,8.17,0,0,1-.2-1.93V39.12c0-.23.1-.34.3-.34Z">
            </path>
            <path class="cls-1"
                d="M205.05,44.38h5A1.15,1.15,0,0,0,211,44a1.69,1.69,0,0,0,.27-1.05v-.66a1.69,1.69,0,0,0-.27-1,1.15,1.15,0,0,0-.94-.34h-4.82c-.11,0-.17.06-.17.19Zm5.39-5.6a2.6,2.6,0,0,1,2.15.81,3.8,3.8,0,0,1,.65,2.42v.89a4.34,4.34,0,0,1-.45,2.14,2.16,2.16,0,0,1-1.49,1l2.23,3.32a.29.29,0,0,1,0,.24.18.18,0,0,1-.21.15h-1.68a.43.43,0,0,1-.23,0,.43.43,0,0,1-.13-.16l-2.06-3.26h-4.21v3.12c0,.23-.1.34-.29.34h-1.4c-.2,0-.3-.11-.3-.34V39.25c0-.31.13-.47.39-.47Z">
            </path>
            <path class="cls-1"
                d="M223.89,38.78c.2,0,.3.11.3.34v1.49c0,.23-.1.35-.3.35h-5.7a2.93,2.93,0,0,0-.84.1,1,1,0,0,0-.53.35,1.44,1.44,0,0,0-.28.65,5.9,5.9,0,0,0-.08,1v.16h7.36c.19,0,.29.11.29.34v1.24c0,.23-.1.35-.29.35h-7.36v.26a5.9,5.9,0,0,0,.08,1,1.43,1.43,0,0,0,.28.66,1.09,1.09,0,0,0,.53.34,2.93,2.93,0,0,0,.84.1h5.7c.2,0,.3.12.3.35v1.49c0,.23-.1.34-.3.34h-5.73a5.48,5.48,0,0,1-1.68-.22,2.36,2.36,0,0,1-1.13-.71,3,3,0,0,1-.64-1.28,8.17,8.17,0,0,1-.2-1.93V42.92a8,8,0,0,1,.2-1.91,3,3,0,0,1,.64-1.28,2.45,2.45,0,0,1,1.13-.72,5.45,5.45,0,0,1,1.68-.23Z">
            </path>
            <path class="cls-1"
                d="M228.94,45.71h4.48l-2.07-4.59a.14.14,0,0,0-.14-.11h-.08a.14.14,0,0,0-.14.11Zm2.53-6.93a1.38,1.38,0,0,1,.83.24A2.39,2.39,0,0,1,233,40l4.31,9.42a.42.42,0,0,1,0,.26c0,.07-.08.1-.19.1h-1.65a.28.28,0,0,1-.3-.2l-.93-2h-6.12l-.9,2a.3.3,0,0,1-.3.2h-1.69c-.11,0-.18,0-.2-.1a.36.36,0,0,1,0-.26L229.33,40A2.61,2.61,0,0,1,230,39a1.16,1.16,0,0,1,.73-.24Z">
            </path>
            <path class="cls-1"
                d="M239.55,38.78c.19,0,.28.11.28.34v6.26a5,5,0,0,0,.09,1,1.43,1.43,0,0,0,.28.66,1.07,1.07,0,0,0,.52.35,3.33,3.33,0,0,0,.84.1h5.28c.19,0,.29.11.29.34v1.54c0,.23-.1.34-.29.34h-5.35a5.48,5.48,0,0,1-1.68-.22,2.41,2.41,0,0,1-1.13-.71,3.15,3.15,0,0,1-.64-1.28,8.17,8.17,0,0,1-.2-1.93V39.12c0-.23.1-.34.3-.34Z">
            </path>
            <path class="cls-1"
                d="M261.94,38.78c.2,0,.3.11.3.34v1.49c0,.23-.1.35-.3.35h-5.69a2.84,2.84,0,0,0-.84.1,1.06,1.06,0,0,0-.54.35,1.44,1.44,0,0,0-.28.65,5.9,5.9,0,0,0-.08,1v.16h7.36c.2,0,.29.11.29.34v1.24c0,.23-.09.35-.29.35h-7.36v.26a5.9,5.9,0,0,0,.08,1,1.43,1.43,0,0,0,.28.66,1.12,1.12,0,0,0,.54.34,2.84,2.84,0,0,0,.84.1h5.69c.2,0,.3.12.3.35v1.49c0,.23-.1.34-.3.34h-5.73a5.48,5.48,0,0,1-1.68-.22,2.41,2.41,0,0,1-1.13-.71,3.15,3.15,0,0,1-.64-1.28,8.17,8.17,0,0,1-.2-1.93V42.92a8,8,0,0,1,.2-1.91,3.08,3.08,0,0,1,.64-1.28,2.51,2.51,0,0,1,1.13-.72,5.45,5.45,0,0,1,1.68-.23Z">
            </path>
            <path class="cls-1"
                d="M272.79,38.78c.19,0,.29.11.29.34v1.49c0,.23-.1.35-.29.35h-6.53a.6.6,0,0,0-.53.23,1.2,1.2,0,0,0-.16.65v.53c0,.59.23.88.68.88h4.89a2.06,2.06,0,0,1,1.7.7,3.06,3.06,0,0,1,.58,2V47.2a2.91,2.91,0,0,1-.56,1.85,2.11,2.11,0,0,1-1.75.7h-7.22c-.2,0-.3-.11-.3-.34V47.92c0-.23.1-.35.3-.35h6.84a.6.6,0,0,0,.54-.23,1.19,1.19,0,0,0,.15-.64v-.65c0-.58-.22-.87-.67-.87h-4.89a2.11,2.11,0,0,1-1.71-.7,3.09,3.09,0,0,1-.57-2V41.33a2.93,2.93,0,0,1,.56-1.85,2.13,2.13,0,0,1,1.75-.7Z">
            </path>
            <path class="cls-1"
                d="M284.81,38.78c.2,0,.3.11.3.34v1.54q0,.36-.3.36h-4.09v8.39c0,.23-.09.34-.28.34H279c-.19,0-.29-.11-.29-.34V41h-4.09q-.3,0-.3-.36V39.12c0-.23.1-.34.3-.34Z">
            </path>
            <path class="cls-1"
                d="M287.84,45.71h4.48l-2.07-4.59a.16.16,0,0,0-.15-.11H290c-.07,0-.11,0-.15.11Zm2.52-6.93a1.43,1.43,0,0,1,.84.24,2.38,2.38,0,0,1,.66.95l4.31,9.42a.37.37,0,0,1,0,.26c0,.07-.09.1-.19.1h-1.66a.3.3,0,0,1-.3-.2l-.92-2H287l-.9,2a.3.3,0,0,1-.3.2h-1.7c-.11,0-.18,0-.2-.1a.42.42,0,0,1,0-.26L288.23,40a2.49,2.49,0,0,1,.64-.95,1.16,1.16,0,0,1,.73-.24Z">
            </path>
            <path class="cls-1"
                d="M305.5,38.78c.2,0,.3.11.3.34v1.54q0,.36-.3.36h-4.09v8.39c0,.23-.09.34-.29.34H299.7c-.19,0-.28-.11-.28-.34V41h-4.09q-.3,0-.3-.36V39.12c0-.23.1-.34.3-.34Z">
            </path>
            <path class="cls-1"
                d="M316,38.78c.19,0,.3.11.3.34v1.49c0,.23-.11.35-.3.35h-5.7a2.84,2.84,0,0,0-.84.1,1,1,0,0,0-.53.35,1.34,1.34,0,0,0-.28.65,5.9,5.9,0,0,0-.08,1v.16h7.36c.19,0,.29.11.29.34v1.24c0,.23-.1.35-.29.35h-7.36v.26a5.9,5.9,0,0,0,.08,1,1.34,1.34,0,0,0,.28.66,1.09,1.09,0,0,0,.53.34,2.84,2.84,0,0,0,.84.1H316c.19,0,.3.12.3.35v1.49c0,.23-.11.34-.3.34h-5.74a5.48,5.48,0,0,1-1.68-.22,2.38,2.38,0,0,1-1.12-.71,3,3,0,0,1-.64-1.28,7.68,7.68,0,0,1-.2-1.93V42.92a7.51,7.51,0,0,1,.2-1.91,3,3,0,0,1,.64-1.28,2.47,2.47,0,0,1,1.12-.72,5.45,5.45,0,0,1,1.68-.23Z">
            </path>
        </g>
    </g>
</svg>